HIERARCHY
ROOT root
{
	OFFSET 0.000000 0.000000 0.000000
	CHANNELS 6 Xposition Yposition Zposition Zrotation Yrotation Xrotation
	JOINT lhip
	{
		OFFSET 0.058581 -0.082280 -0.017664
		CHANNELS 3 Zrotation Yrotation Xrotation
		JOINT lknee
		{
			OFFSET 0.043451 -0.386469 0.008037
			CHANNELS 3 Zrotation Yrotation Xrotation
			JOINT lankle
			{
				OFFSET -0.014790 -0.426874 -0.037428
				CHANNELS 3 Zrotation Yrotation Xrotation
				JOINT ltoe
				{
					OFFSET 0.041054 -0.060286 0.122042
					CHANNELS 3 Zrotation Yrotation Xrotation
					End Site
					{
						OFFSET 0.000000 0.000000 0.000000
					}
				}
			}
		}
	}
	JOINT rhip
	{
		OFFSET -0.060310 -0.090513 -0.013543
		CHANNELS 3 Zrotation Yrotation Xrotation
		JOINT rknee
		{
			OFFSET -0.043257 -0.383688 -0.004843
			CHANNELS 3 Zrotation Yrotation Xrotation
			JOINT rankle
			{
				OFFSET 0.019056 -0.420046 -0.034562
				CHANNELS 3 Zrotation Yrotation Xrotation
				JOINT rtoe
				{
					OFFSET -0.034840 -0.062106 0.130323
					CHANNELS 3 Zrotation Yrotation Xrotation
					End Site
					{
						OFFSET 0.000000 0.000000 0.000000
					}
				}
			}
		}
	}
	JOINT lowerback
	{
		OFFSET 0.004439 0.124404 -0.038385
		CHANNELS 3 Zrotation Yrotation Xrotation
		JOINT upperback
		{
			OFFSET 0.004488 0.137956 0.026820
			CHANNELS 3 Zrotation Yrotation Xrotation
			JOINT chest
			{
				OFFSET -0.002265 0.056032 0.002855
				CHANNELS 3 Zrotation Yrotation Xrotation
				JOINT lowerneck
				{
					OFFSET -0.013390 0.211636 -0.033468
					CHANNELS 3 Zrotation Yrotation Xrotation
					JOINT upperneck
					{
						OFFSET 0.010113 0.088937 0.050410
						CHANNELS 3 Zrotation Yrotation Xrotation
						End Site
						{
							OFFSET 0.000000 0.000000 0.000000
						}
					}
				}
				JOINT lclavicle
				{
					OFFSET 0.071702 0.114000 -0.018898
					CHANNELS 3 Zrotation Yrotation Xrotation
					JOINT lshoulder
					{
						OFFSET 0.122921 0.045205 -0.019046
						CHANNELS 3 Zrotation Yrotation Xrotation
						JOINT lelbow
						{
							OFFSET 0.255332 -0.015649 -0.022946
							CHANNELS 3 Zrotation Yrotation Xrotation
							JOINT lwrist
							{
								OFFSET 0.265709 0.012698 -0.007375
								CHANNELS 3 Zrotation Yrotation Xrotation
								End Site
								{
									OFFSET 0.000000 0.000000 0.000000
								}
							}
						}
					}
				}
				JOINT rclavicle
				{
					OFFSET -0.082954 0.112472 -0.023707
					CHANNELS 3 Zrotation Yrotation Xrotation
					JOINT rshoulder
					{
						OFFSET -0.113228 0.046853 -0.008472
						CHANNELS 3 Zrotation Yrotation Xrotation
						JOINT relbow
						{
							OFFSET -0.260127 -0.014369 -0.031269
							CHANNELS 3 Zrotation Yrotation Xrotation
							JOINT rwrist
							{
								OFFSET -0.269108 0.006794 -0.006027
								CHANNELS 3 Zrotation Yrotation Xrotation
								End Site
								{
									OFFSET 0.000000 0.000000 0.000000
								}
							}
						}
					}
				}
			}
		}
	}
}
MOTION
Frames: 13
Frame Time: 0.033333
1.915682 0.313484 0.990269 -91.178969 -0.686071 87.053934 -0.417829 -6.825515 -18.637959 -2.838111 2.184839 10.962967 2.283616 13.857630 12.566213 0.000000 -0.000000 0.000000 0.664906 -0.560063 -0.591335 -3.645394 -5.730388 53.369932 5.879735 -11.266018 7.114299 0.000000 -0.000000 0.000000 -4.926648 7.591879 4.021955 1.396813 3.277915 5.143622 -1.706616 4.166198 2.132805 2.197867 -7.820670 10.318811 3.356370 -10.235447 10.057423 -14.929892 16.724299 4.898814 -43.115937 11.640401 13.525008 -112.148813 -67.563121 150.478384 20.228196 -18.007451 11.240714 16.367103 -7.405581 -1.398707 62.516212 -8.048185 16.926312 90.819596 79.590450 122.040087 -22.165157 16.985872 -1.477883 
1.860167 0.311326 0.966797 -90.011583 -0.959114 84.944866 -2.659210 -6.986180 -16.607071 -3.979855 -1.196064 20.664487 8.935492 16.073598 -2.258361 0.000000 -0.000000 0.000000 -0.994625 -0.766806 -3.754605 -4.998658 -6.140702 66.433010 5.952260 -13.136901 2.929104 0.000000 -0.000000 0.000000 -5.114624 5.859531 7.558664 1.259163 2.351258 2.069888 -1.473523 3.463770 3.810976 2.355471 -7.722809 9.424004 2.410437 -8.293306 10.981790 -15.944524 15.714201 4.219385 -43.420452 11.823709 13.255194 -109.590203 -68.163638 147.875122 20.778225 -17.875288 11.755538 17.223315 -6.991636 -2.563289 61.214599 -10.119920 17.126923 79.283745 80.520143 109.821518 -21.933036 15.828453 -0.374207 
1.810833 0.312006 0.944173 -88.965720 -1.161309 83.178971 -4.166315 -6.391128 -15.130283 -5.019929 -3.065139 28.533590 11.997842 19.013678 -11.401499 0.000000 -0.000000 0.000000 -2.315352 -0.158946 -8.870833 -4.402347 -5.586601 77.396244 5.708806 -14.339152 -1.137648 0.000000 -0.000000 0.000000 -5.218655 4.491003 10.387222 1.325338 1.708787 1.003755 -1.865570 2.628625 5.765241 3.838875 -6.681699 6.514016 1.376287 -8.712000 12.664815 -17.878266 14.029729 2.712879 -43.066634 9.075868 13.712176 -103.535452 -69.567246 141.411941 21.027064 -17.615348 12.849415 19.556174 -7.268444 -4.214678 59.319831 -10.622319 17.514069 55.215674 81.033729 85.249688 -22.985595 14.804265 1.833670 
1.756756 0.313148 0.929978 -88.805097 -1.171479 82.007721 -4.084072 -5.863760 -12.450374 -6.603030 -2.561270 33.544080 12.968005 20.890505 -18.501715 0.000000 -0.000000 0.000000 -3.343763 1.642068 -17.942306 -3.346166 -5.198485 85.491217 5.253858 -15.228519 -5.431746 0.000000 -0.000000 0.000000 -5.277240 3.005527 13.172307 1.600310 1.589986 1.088076 -2.167570 1.316608 6.439152 4.268854 -5.354920 5.344587 0.662310 -8.534947 13.787258 -19.587328 11.636584 2.831785 -44.500401 4.637334 13.507112 -94.961613 -71.847466 133.582574 20.950518 -17.415994 14.096215 21.441560 -7.219461 -4.041372 58.097153 -10.205085 16.306927 22.299336 78.620919 53.149537 -22.520502 14.282377 4.523064 
1.727974 0.314054 0.929436 -88.451646 -0.798464 81.248516 -3.733148 -4.695781 -10.654233 -7.077728 -2.815511 35.810549 11.894838 20.593666 -21.143421 0.000000 -0.000000 0.000000 -3.311176 2.140406 -22.976230 -3.439072 -4.914226 86.037443 4.770489 -15.229283 -7.684843 0.000000 -0.000000 0.000000 -5.097849 1.858952 15.362616 1.698545 1.274262 1.243406 -1.949067 0.470327 6.451300 3.950908 -4.620933 5.315184 0.441506 -7.945331 14.170571 -20.126032 9.872025 3.241424 -46.050088 2.682766 13.295953 -92.629313 -73.413813 131.643234 21.417295 -17.925224 13.102006 21.798719 -6.300383 -3.590402 57.883291 -10.034562 15.230189 8.950849 75.888223 39.564085 -22.505336 13.811969 4.524706 
1.691272 0.315532 0.934521 -87.607785 0.297252 80.462669 -2.945940 -3.044585 -7.335521 -7.024370 -4.472458 36.652882 10.141962 20.111467 -24.043641 0.000000 -0.000000 0.000000 -3.084159 2.547313 -28.249446 -3.976749 -5.511788 81.509684 4.992008 -14.690956 -9.381397 0.000000 -0.000000 0.000000 -4.090197 0.253154 18.070802 1.848258 0.924405 1.449252 -1.401908 -0.879750 6.370215 3.050594 -4.139090 6.469298 0.273716 -6.864717 13.785620 -20.454963 7.397631 3.968814 -47.947922 0.114357 13.392661 -90.266436 -75.123250 130.145625 21.579122 -17.787086 12.540282 21.355792 -5.097349 -2.977416 57.665523 -9.971846 13.799875 -0.446557 71.280284 29.731442 -22.369701 12.459742 3.706428 
1.654834 0.316979 0.941346 -86.858459 1.724165 81.146257 -2.011190 -2.161033 -3.980646 -6.002807 -6.637950 34.454942 9.501810 20.290362 -25.979009 0.000000 -0.000000 0.000000 -3.301261 3.162624 -32.992277 -4.744459 -7.834111 72.415870 5.845648 -14.397943 -8.247752 0.000000 -0.000000 0.000000 -2.401831 -2.327788 18.654272 1.885659 0.391509 2.270942 -1.493216 -1.197778 5.738138 1.996920 -3.562509 8.369979 0.265612 -5.869843 13.338151 -20.305663 5.961169 4.281804 -48.792906 -2.183265 14.179326 -89.365237 -75.971639 129.710220 21.642644 -17.505497 11.636870 21.082487 -4.111584 -1.808768 57.188095 -9.611393 13.046527 -5.685721 66.004333 24.233647 -22.243139 11.102932 2.968103 
1.617628 0.319082 0.949095 -86.495078 2.492342 82.997286 -1.687275 -2.417926 -1.274539 -4.681952 -8.201178 31.027744 9.051686 20.947949 -26.133896 0.000000 -0.000000 0.000000 -3.957561 3.160798 -36.562479 -4.937040 -10.495567 59.355004 7.052947 -15.480379 -2.828907 0.000000 -0.000000 0.000000 -1.350275 -4.718464 18.992186 1.627922 -0.156161 0.310314 -1.482113 -0.917215 5.959513 0.660063 -3.406543 10.886258 0.724356 -3.989470 13.105407 -20.267602 6.116977 4.687792 -48.691996 -4.349636 15.017817 -88.270775 -75.818705 129.187734 21.794249 -17.581376 10.354995 21.550759 -3.923698 -0.210963 56.155652 -8.807515 13.070376 -8.312364 60.227131 20.948842 -22.163312 9.913211 2.005662 
1.581556 0.322229 0.954954 -86.209088 2.748207 84.957223 -1.103654 -3.104321 0.770608 -4.141348 -8.294490 28.028537 8.320761 20.581210 -25.772392 0.000000 -0.000000 0.000000 -4.169317 2.598169 -38.269572 -3.661409 -11.989507 43.985499 8.188379 -16.424758 6.099209 0.000000 -0.000000 0.000000 -1.508021 -3.958064 16.931196 2.714417 -0.047856 2.803306 -0.258751 -2.248742 5.675306 0.147035 -3.425155 11.321361 0.531713 -3.591977 12.205695 -20.180919 4.769268 5.357077 -50.402611 -8.069836 16.416172 -80.294316 -76.915210 121.541795 20.863085 -17.461573 10.363096 21.483208 -4.277853 -0.202516 54.941974 -7.703476 13.757773 -10.892880 54.717697 17.831061 -21.123216 8.117850 0.661569 
1.534891 0.326394 0.958955 -85.272703 2.943039 87.165668 0.605272 -1.658752 2.729312 -4.629120 -8.952590 25.803978 7.217357 18.288286 -26.299392 0.000000 -0.000000 0.000000 -3.649707 0.934767 -37.956534 -1.050054 -12.081733 25.839722 10.281435 -14.826184 15.810015 0.000000 -0.000000 0.000000 -0.905074 -3.997417 15.611700 3.165406 -0.703326 3.690405 0.442805 -2.755548 5.489398 -0.867773 -3.086653 12.495925 0.975610 -3.153913 11.456740 -19.603585 3.171707 6.040878 -51.895080 -10.677611 17.085796 -66.809707 -77.272926 109.854401 19.381444 -17.293092 9.962754 21.165433 -3.685800 1.156780 54.782703 -6.716890 13.283994 -12.033594 47.821895 17.394562 -19.746154 6.341021 -1.984975 
1.495951 0.329793 0.956904 -84.072345 2.878768 87.823591 1.958888 -0.333559 4.473217 -5.417359 -9.987288 26.301107 6.238218 16.394560 -27.098668 0.000000 -0.000000 0.000000 -3.486719 -0.645008 -36.159393 0.599403 -12.401015 16.519257 11.034471 -14.198723 21.161530 0.000000 -0.000000 0.000000 0.000606 -4.183221 15.599257 3.123643 -1.330250 4.569834 0.636676 -2.885079 5.244263 -1.809280 -3.079390 13.115475 1.365634 -2.972044 11.093440 -19.351918 1.191665 6.362382 -52.594069 -11.704479 17.117131 -53.934313 -77.122114 98.081750 18.525015 -17.196843 9.164341 20.771096 -2.267669 2.226845 55.178490 -6.558870 12.508244 -12.494817 42.958373 17.363953 -18.680355 5.122461 -4.083734 
1.456354 0.334053 0.948729 -82.859145 2.340780 87.925978 2.568949 0.006049 4.821126 -6.562043 -10.196013 30.959654 5.545679 15.345638 -27.598526 0.000000 -0.000000 0.000000 -3.705131 -2.129961 -34.988558 1.087229 -13.112953 14.598364 10.780648 -14.836633 25.143274 0.000000 -0.000000 0.000000 0.558882 -4.127741 16.315440 3.032585 -1.743988 5.074698 0.728430 -2.992008 5.178787 -2.704224 -3.415809 13.198501 1.515733 -2.528606 11.114670 -19.620022 -0.537402 6.364595 -52.984734 -12.419540 17.022997 -40.908200 -76.181284 84.930143 17.407582 -16.358662 8.765376 20.755124 -0.861327 2.788640 55.195574 -6.549652 12.409471 -12.447737 38.330183 17.385224 -18.467053 4.339089 -4.709440 
1.416874 0.340166 0.934474 -82.013832 1.943722 87.845651 3.444535 0.058504 2.800851 -8.433358 -8.326856 40.551905 3.945502 14.695140 -27.380493 0.000000 -0.000000 0.000000 -4.038056 -2.012888 -34.873651 1.328552 -12.212067 19.532421 9.808875 -12.063427 17.198021 0.000000 -0.000000 0.000000 0.959003 -3.966032 17.750418 3.223847 -1.819895 5.138750 0.619794 -3.005714 5.029131 -2.269036 -2.593959 12.632734 0.898431 -3.567879 11.763291 -20.059729 -1.747902 5.887688 -53.514853 -12.358198 16.949853 -28.773517 -74.741717 72.446690 16.435222 -15.248117 8.158006 21.376727 0.308105 3.035330 54.537329 -6.365853 11.922939 -11.555576 34.526822 19.495479 -18.520110 3.429384 -5.220213 
